<svg width="24" height="24" viewBox="0 0 24 24" fill="none" xmlns="http://www.w3.org/2000/svg">
<path fill-rule="evenodd" clip-rule="evenodd" d="M12 7.74986L11.228 7.28585L7.042 4.77486L2.5 7.80286V14.1099L12 19.2899L21.5 14.1089V7.80286L16.958 4.77486L12.772 7.28585L12 7.74986ZM12 5.99986L7.814 3.48785C7.317 3.18985 6.692 3.20485 6.21 3.52685L1.668 6.55485C1.251 6.83285 1 7.29985 1 7.80286V14.1099C1 14.6579 1.3 15.1639 1.782 15.4259L11.282 20.6079C11.729 20.8519 12.271 20.8519 12.718 20.6079L22.218 15.4259C22.7 15.1639 23 14.6579 23 14.1099V7.80286C23 7.30086 22.75 6.83285 22.332 6.55485L17.79 3.52685C17.308 3.20485 16.683 3.18985 16.186 3.48785L12 5.99986ZM15.5 12.2499C15.5 12.9399 14.94 13.4999 14.25 13.4999C13.56 13.4999 13 12.9399 13 12.2499C13 11.5599 13.56 10.9999 14.25 10.9999C14.94 10.9999 15.5 11.5599 15.5 12.2499ZM7 7.99986C6.586 7.99986 6.25 8.33586 6.25 8.74986V10.2499H4.75C4.336 10.2499 4 10.5859 4 10.9999C4 11.4139 4.336 11.7499 4.75 11.7499H6.25V13.2499C6.25 13.6639 6.586 13.9999 7 13.9999C7.414 13.9999 7.75 13.6639 7.75 13.2499V11.7499H9.25C9.664 11.7499 10 11.4139 10 10.9999C10 10.5859 9.664 10.2499 9.25 10.2499H7.75V8.74986C7.75 8.33586 7.414 7.99986 7 7.99986ZM17.75 10.9999C18.44 10.9999 19 10.4399 19 9.74986C19 9.05986 18.44 8.49986 17.75 8.49986C17.06 8.49986 16.5 9.05986 16.5 9.74986C16.5 10.4399 17.06 10.9999 17.75 10.9999Z" fill="#030303"/>
</svg>
