<svg width="24" height="24" viewBox="0 0 24 24" fill="none" xmlns="http://www.w3.org/2000/svg">
<rect x="2.5" y="10" width="4.5" height="11" stroke="#222222"/>
<path d="M14.1033 2.97242L13.7498 2.61887L13.7498 2.61887L14.1033 2.97242ZM16.5685 4.55977L16.1003 4.3842L16.1003 4.3842L16.5685 4.55977ZM7.0001 10.0757V10.5757C7.13271 10.5757 7.25989 10.523 7.35366 10.4292L7.0001 10.0757ZM7 10.0757V9.57566C6.72386 9.57566 6.5 9.79952 6.5 10.0757H7ZM7 21.0757H6.5C6.5 21.3518 6.72386 21.5757 7 21.5757V21.0757ZM19.6029 18.865L19.1205 18.7335L19.1205 18.7335L19.6029 18.865ZM21.311 12.6019L20.8286 12.4703L20.8286 12.4703L21.311 12.6019ZM14.5 10.0757L14.0319 9.9001C13.9743 10.0537 13.9957 10.2257 14.0891 10.3605C14.1825 10.4952 14.336 10.5757 14.5 10.5757V10.0757ZM14.4569 3.32598C15.2174 2.56552 16.4779 3.37724 16.1003 4.3842L17.0367 4.73533C17.7919 2.72139 15.2707 1.09797 13.7498 2.61887L14.4569 3.32598ZM7.35366 10.4292L14.4569 3.32598L13.7498 2.61887L6.64655 9.72211L7.35366 10.4292ZM7 10.5757H7.0001V9.57566H7V10.5757ZM7.5 10.0758V10.0757H6.5V10.0758H7.5ZM7.5 21.0757V10.0758H6.5V21.0757H7.5ZM16.7086 20.5757H7V21.5757H16.7086V20.5757ZM19.1205 18.7335C18.8239 19.8211 17.836 20.5757 16.7086 20.5757V21.5757C18.2869 21.5757 19.67 20.5193 20.0853 18.9966L19.1205 18.7335ZM20.8286 12.4703L19.1205 18.7335L20.0853 18.9966L21.7934 12.7335L20.8286 12.4703ZM19.3815 10.5757C20.3706 10.5757 21.0889 11.5161 20.8286 12.4703L21.7934 12.7335C22.2271 11.1431 21.0299 9.57566 19.3815 9.57566V10.5757ZM14.5 10.5757H19.3815V9.57566H14.5V10.5757ZM16.1003 4.3842L14.0319 9.9001L14.9682 10.2512L17.0367 4.73533L16.1003 4.3842Z" fill="#222222"/>
</svg>
