<svg width="24" height="24" viewBox="0 0 24 24" fill="none" xmlns="http://www.w3.org/2000/svg">
<path fill-rule="evenodd" clip-rule="evenodd" d="M3.11503 5.99766L19.905 3.33766L20.062 4.32566L3.27203 6.98566L3.11503 5.99766ZM1.63403 6.23266C1.50403 5.41366 2.06203 4.64566 2.88103 4.51566L19.671 1.85666C20.49 1.72666 21.258 2.28566 21.387 3.10366L21.544 4.09166L21.778 5.57266L20.297 5.80766L6.46203 7.99866H21.999V19.4987C21.999 20.3277 21.327 20.9987 20.499 20.9987H3.49903C2.67103 20.9987 1.99903 20.3277 1.99903 19.4987V8.53866L1.78903 7.21966L1.63303 6.23266H1.63403ZM9.33203 9.49866H7.33203L8.99903 11.9987H5.99903L4.33203 9.49866H3.49903V19.4987H20.499V9.49866H17.332L18.999 11.9997H15.999L14.332 9.49866H12.332L13.999 11.9997H10.999L9.33203 9.49866Z" fill="#030303"/>
</svg>
