<svg width="24" height="24" viewBox="0 0 24 24" fill="none" xmlns="http://www.w3.org/2000/svg">
<path fill-rule="evenodd" clip-rule="evenodd" d="M19 2.99989C19 2.72889 18.854 2.47889 18.617 2.34589C18.38 2.21289 18.09 2.21889 17.859 2.35989L8.859 7.85989C8.636 7.99589 8.5 8.23889 8.5 8.49989V16.4009C8.059 16.1459 7.546 15.9999 7 15.9999C5.343 15.9999 4 17.3429 4 18.9999C4 20.6569 5.343 21.9999 7 21.9999C8.657 21.9999 10 20.6569 10 18.9999V11.9199L17.5 7.33689V13.4009C17.059 13.1459 16.546 12.9999 16 12.9999C14.343 12.9999 13 14.3429 13 15.9999C13 17.6569 14.343 18.9999 16 18.9999C17.657 18.9999 19 17.6569 19 15.9999V2.99989ZM17.5 15.9999C17.5 15.1719 16.828 14.4999 16 14.4999C15.172 14.4999 14.5 15.1719 14.5 15.9999C14.5 16.8279 15.172 17.4999 16 17.4999C16.828 17.4999 17.5 16.8279 17.5 15.9999ZM8.5 18.9999C8.5 18.1719 7.828 17.4999 7 17.4999C6.172 17.4999 5.5 18.1719 5.5 18.9999C5.5 19.8279 6.172 20.4999 7 20.4999C7.828 20.4999 8.5 19.8279 8.5 18.9999ZM17.5 5.57989L10 10.1619V8.91989L17.5 4.33589V5.57989Z" fill="#030303"/>
</svg>
