<svg width="25" height="25" viewBox="0 0 25 25" fill="none" xmlns="http://www.w3.org/2000/svg">
<path d="M7.25 16.25L7.60355 16.6036L7.75 16.4571V16.25H7.25ZM5.25 18.25L4.89645 17.8964L4.75 18.0429V18.25H5.25ZM5.25 19.25H4.75V19.75H5.25V19.25ZM20.25 19.25V19.75H20.75V19.25H20.25ZM20.25 18.25H20.75V18.0429L20.6036 17.8964L20.25 18.25ZM18.25 16.25H17.75V16.4571L17.8964 16.6036L18.25 16.25ZM7.75 11.25C7.75 8.48858 9.98858 6.25 12.75 6.25V5.25C9.43629 5.25 6.75 7.93629 6.75 11.25H7.75ZM7.75 16.25V11.25H6.75V16.25H7.75ZM5.60355 18.6036L7.60355 16.6036L6.89645 15.8964L4.89645 17.8964L5.60355 18.6036ZM5.75 19.25V18.25H4.75V19.25H5.75ZM20.25 18.75H5.25V19.75H20.25V18.75ZM19.75 18.25V19.25H20.75V18.25H19.75ZM17.8964 16.6036L19.8964 18.6036L20.6036 17.8964L18.6036 15.8964L17.8964 16.6036ZM17.75 11.25V16.25H18.75V11.25H17.75ZM12.75 6.25C15.5114 6.25 17.75 8.48858 17.75 11.25H18.75C18.75 7.93629 16.0637 5.25 12.75 5.25V6.25Z" fill="#222222"/>
<path d="M10.75 4.75C10.75 3.64543 11.6454 2.75 12.75 2.75V2.75C13.8546 2.75 14.75 3.64543 14.75 4.75V5.75H10.75V4.75Z" fill="#222222"/>
<path d="M14.75 20.75C14.75 21.0126 14.6983 21.2727 14.5978 21.5154C14.4972 21.758 14.3499 21.9785 14.1642 22.1642C13.9785 22.3499 13.758 22.4972 13.5154 22.5978C13.2727 22.6983 13.0126 22.75 12.75 22.75C12.4874 22.75 12.2273 22.6983 11.9846 22.5978C11.742 22.4972 11.5215 22.3499 11.3358 22.1642C11.1501 21.9785 11.0028 21.758 10.9022 21.5154C10.8017 21.2727 10.75 21.0126 10.75 20.75L12.75 20.75H14.75Z" fill="#222222"/>
</svg>
