<svg width="24" height="24" viewBox="0 0 24 24" fill="none" xmlns="http://www.w3.org/2000/svg">
<path fill-rule="evenodd" clip-rule="evenodd" d="M7.27826 4.933C8.67526 3.999 10.3183 3.5 12.0003 3.5C13.6813 3.5 15.3253 3.999 16.7223 4.933C18.1203 5.867 19.2103 7.194 19.8523 8.747C20.4963 10.3 20.6653 12.009 20.3373 13.658C20.0093 15.308 19.1993 16.822 18.0103 18.01C17.7173 18.303 17.7173 18.778 18.0103 19.071C18.3033 19.364 18.7783 19.364 19.0713 19.071C20.4703 17.672 21.4223 15.891 21.8083 13.951C22.1943 12.011 21.9963 10.001 21.2383 8.173C20.4823 6.346 19.2003 4.784 17.5563 3.685C15.9103 2.586 13.9783 2 12.0003 2C10.0223 2 8.08926 2.586 6.44426 3.685C4.80026 4.785 3.51826 6.345 2.76126 8.173C2.00426 10 1.80626 12.011 2.19226 13.951C2.57826 15.891 3.53026 17.672 4.92926 19.071C5.22226 19.364 5.69726 19.364 5.98926 19.071C6.28226 18.778 6.28226 18.303 5.98926 18.011C4.80126 16.821 3.99126 15.307 3.66326 13.658C3.33526 12.009 3.50326 10.3 4.14726 8.748C4.79026 7.194 5.88126 5.867 7.27826 4.933ZM12.0003 7.5C11.1103 7.5 10.2403 7.764 9.50026 8.258C8.76026 8.753 8.18326 9.456 7.84326 10.278C7.50226 11.1 7.41326 12.005 7.58626 12.878C7.76026 13.751 8.18926 14.553 8.81826 15.182C9.11126 15.475 9.11126 15.95 8.81826 16.242C8.52526 16.535 8.05026 16.535 7.75826 16.242C6.91826 15.403 6.34726 14.334 6.11526 13.17C5.88426 12.007 6.00326 10.8 6.45726 9.704C6.91126 8.608 7.68026 7.67 8.66726 7.01C9.65326 6.351 10.8133 6 12.0003 6C13.1873 6 14.3473 6.352 15.3333 7.011C16.3203 7.671 17.0893 8.608 17.5433 9.704C17.9973 10.8 18.1163 12.007 17.8853 13.17C17.6533 14.334 17.0823 15.403 16.2433 16.243C15.9503 16.536 15.4753 16.536 15.1823 16.243C14.8893 15.95 14.8893 15.475 15.1823 15.182C15.8123 14.552 16.2403 13.751 16.4133 12.878C16.5873 12.005 16.4983 11.1 16.1573 10.278C15.8173 9.456 15.2403 8.753 14.5003 8.258C13.7603 7.764 12.8903 7.5 12.0003 7.5ZM12.8753 13.799C13.5413 13.474 14.0003 12.79 14.0003 12C14.0003 10.895 13.1053 10 12.0003 10C10.8953 10 10.0003 10.895 10.0003 12C10.0003 12.79 10.4593 13.474 11.1253 13.799V21C11.1253 21.483 11.5173 21.875 12.0003 21.875C12.4833 21.875 12.8753 21.483 12.8753 21V13.799Z" fill="#030303"/>
</svg>
