<svg width="24" height="24" viewBox="0 0 24 24" fill="none" xmlns="http://www.w3.org/2000/svg">
<path fill-rule="evenodd" clip-rule="evenodd" d="M7.61016 15.7192L8.00216 15.4992V13.2592L7.46816 13.0312L6.52616 12.6272C5.65716 12.2552 5.12616 11.4772 5.08016 10.6532C5.03316 9.83017 5.47016 9.01117 6.28316 8.55617L15.1302 3.59017C16.3612 2.90117 17.9152 3.32017 18.5962 4.42317C19.2482 5.48117 18.9092 6.87517 17.7172 7.54117L16.3902 8.28417L16.0022 8.50117V10.7442L16.5322 10.9712L17.4742 11.3752C18.3432 11.7472 18.8742 12.5252 18.9202 13.3492C18.9672 14.1722 18.5302 14.9912 17.7172 15.4462L17.7152 15.4472L8.87016 20.4112L8.86916 20.4122C7.63816 21.1002 6.08516 20.6812 5.40416 19.5782C4.75216 18.5202 5.09116 17.1272 6.28316 16.4602L7.61016 15.7192ZM9.60316 21.7212C7.69816 22.7872 5.24716 22.1812 4.12816 20.3662C3.07116 18.6532 3.58016 16.4762 5.24516 15.3412C5.34405 15.2738 5.44581 15.2107 5.55016 15.1522L6.87716 14.4102L5.93516 14.0062C5.68637 13.8998 5.44886 13.7688 5.22616 13.6152C4.26316 12.9492 3.64816 11.8972 3.58216 10.7382C3.50216 9.31617 4.26116 7.96817 5.55016 7.24817L14.3972 2.28217C16.3022 1.21617 18.7532 1.82217 19.8722 3.63717C20.9292 5.35017 20.4202 7.52717 18.7552 8.66217C18.6563 8.72995 18.5546 8.79335 18.4502 8.85217L17.1232 9.59417L18.0652 9.99717C18.3182 10.1062 18.5552 10.2372 18.7742 10.3892C19.7372 11.0552 20.3522 12.1062 20.4182 13.2652C20.4982 14.6882 19.7392 16.0352 18.4502 16.7562L9.60316 21.7212ZM10.0002 14.5672C10.0002 14.6109 10.0117 14.654 10.0335 14.6919C10.0554 14.7298 10.0868 14.7614 10.1247 14.7833C10.1626 14.8053 10.2055 14.8169 10.2493 14.8171C10.2931 14.8172 10.3361 14.8059 10.3742 14.7842L14.8242 12.2172C14.8622 12.1952 14.8937 12.1637 14.9157 12.1257C14.9376 12.0877 14.9491 12.0445 14.9491 12.0007C14.9491 11.9568 14.9376 11.9137 14.9157 11.8757C14.8937 11.8377 14.8622 11.8061 14.8242 11.7842L10.3742 9.21717C10.3362 9.19549 10.2933 9.18414 10.2496 9.18425C10.2059 9.18435 10.163 9.1959 10.1251 9.21776C10.0873 9.23961 10.0558 9.271 10.0339 9.30879C10.012 9.34659 10.0003 9.38947 10.0002 9.43317V14.5672Z" fill="#030303"/>
</svg>
